<svg xmlns="http://www.w3.org/2000/svg" width="137" height="33" viewBox="0 0 137 33">
    <g fill="#007EAE" fill-rule="evenodd">
        <path d="M42.84 5.376c-6.124 0-11.087 4.899-11.082 10.94.005 5.99 4.962 10.889 11.03 10.9 6.119.013 11.145-4.896 11.156-10.894.011-6.004-5.002-10.946-11.104-10.946m16.647 10.91c.005 8.99-7.478 16.306-16.682 16.307-9.096 0-16.656-7.388-16.667-16.287C26.128 7.375 33.703-.006 42.877 0c9.129.006 16.604 7.335 16.61 16.286M85.512 10.802c-.119.298-.261.589-.352.895-1.18 3.977-2.353 7.955-3.524 11.934-.338 1.15-.734 1.462-1.93 1.47-.93.005-1.862.008-2.792-.002-1.178-.012-1.74-.46-2.08-1.606a6437.928 6437.928 0 0 0-3.48-11.753c-.084-.28-.212-.547-.32-.82l-.235.022c-.045.253-.12.505-.13.76-.199 5.238-.393 10.477-.58 15.716-.04 1.152-.327 1.531-1.469 1.604a22.23 22.23 0 0 1-2.883 0c-1.406-.093-1.854-.653-1.722-2.082.23-2.486.49-4.97.73-7.454.423-4.38.82-8.76 1.268-13.136.157-1.532.653-1.92 2.182-1.928 1.272-.006 2.544-.024 3.815.008 1.357.034 1.89.466 2.272 1.765 1.152 3.92 2.296 7.841 3.451 11.76.116.393.293.769.54 1.404.233-.497.373-.723.45-.97 1.298-4.1 2.59-8.203 3.877-12.308.384-1.225.77-1.594 2.046-1.638a75.826 75.826 0 0 1 4.56-.008c1.237.032 1.811.63 1.916 1.952.332 4.199.632 8.4.97 12.598.214 2.675.466 5.347.713 8.02.14 1.517-.173 1.938-1.672 2.024-.896.05-1.802.055-2.697-.01-1.118-.081-1.474-.452-1.545-1.578-.25-3.954-.475-7.908-.71-11.862-.077-1.308-.145-2.617-.234-3.924-.018-.27-.104-.534-.16-.802l-.275-.051M.016 17.23c0-3.617.007-7.235-.004-10.853-.003-1.2.39-1.793 1.525-1.9a16.629 16.629 0 0 1 2.983-.01c1.144.098 1.694.844 1.683 2.24-.017 2.277-.104 4.553-.146 6.83-.023 1.27-.008 1.275 1.247 1.277 2.415.003 4.83-.023 7.244.014.757.012 1.06-.176 1.036-1.038-.067-2.463-.038-4.93-.049-7.395-.006-1.362.417-1.869 1.74-1.954.813-.052 1.631-.038 2.445-.01 1.243.045 1.866.61 1.896 1.897.044 1.901-.019 3.805-.04 5.708-.046 4.026-.108 8.051-.132 12.077-.006.996.121 1.992.157 2.989.044 1.248-.338 1.785-1.5 1.893-.987.092-1.992.08-2.982.007-.906-.067-1.522-.6-1.609-1.592a21.411 21.411 0 0 1-.08-2.14c.021-1.84.063-3.68.115-5.52.015-.552-.184-.788-.735-.785-2.717.015-5.434.015-8.15 0-.518-.003-.707.231-.694.727.06 2.37.068 4.742.194 7.107.075 1.39-.351 2.11-1.683 2.217-.9.072-1.813.067-2.715.008-1.164-.077-1.751-.74-1.76-2.058-.015-2.527.041-5.055.064-7.582.007-.718.001-1.436.001-2.154h-.05M122.675 12.016h-.006c0 1.17.01 2.339-.005 3.508-.006.44.109.713.634.688 1.303-.062 2.621-.01 3.905-.19 2.002-.283 3.068-1.696 3.082-3.83.013-2.145-1.103-3.69-3.05-3.984-1.218-.183-2.475-.12-3.712-.202-.694-.046-.88.255-.858.872.036 1.045.01 2.092.01 3.138zm-6.037 3.874c0-3.297.002-6.595 0-9.892-.001-1.485.516-2.14 1.989-2.143 3.353-.006 6.721-.09 10.056.174 5.994.474 9.394 6.168 6.78 11.262-.557 1.084-1.598 1.963-2.517 2.837-.422.4-.568.617-.224 1.125 1.205 1.78 2.358 3.592 3.544 5.383.877 1.321.743 1.957-.641 2.81-.592.365-1.183.734-1.79 1.074-1.135.634-1.95.49-2.77-.499-.297-.359-.546-.758-.794-1.153-1.208-1.924-2.451-3.83-3.59-5.79-.502-.863-1.093-1.209-2.128-1.168-2.082.082-1.68-.04-1.741 1.642-.054 1.506.032 3.016.05 4.525.018 1.587-.449 2.057-2.074 2.084-.64.011-1.279.01-1.918.001-1.615-.023-2.25-.611-2.298-2.193-.032-1.047.008-2.095.01-3.143.003-2.312 0-4.624 0-6.936h.056zM96.44 6.508c-.002-1.497.474-2.071 1.962-2.082 4.169-.03 8.338-.026 12.506-.002 1.348.007 1.724.456 1.735 1.847.003.406.002.812 0 1.218-.005 1.428-.445 1.883-1.895 1.886-2.378.004-4.757.02-7.133-.043-.843-.023-1.065.272-1.026 1.074.057 1.153.034 2.313-.002 3.468-.02.62.224.824.814.814 1.945-.031 3.891-.034 5.836-.038 1.344-.003 1.688.353 1.704 1.722.029 2.475.029 2.47-2.45 2.456-1.668-.009-3.336.033-5.002-.01-.795-.02-1.021.317-.987 1.06.05 1.06.075 2.126.031 3.186-.037.88.25 1.202 1.161 1.165 2.375-.096 4.754-.106 7.131-.134 1.421-.017 1.822.39 1.838 1.812.007.688-.015 1.375 0 2.062.012.609-.27.941-.855 1.008a10.66 10.66 0 0 1-1.196.087c-3.83.006-7.658.006-11.488.003-2.02-.001-2.647-.618-2.66-2.69-.018-3.031-.004-6.062-.004-9.092-.017-3.592-.012-7.185-.02-10.777z"/>
    </g>
</svg>